# xmcd
#
# Track frame offsets:
#	150
#	9901
#	23300
#	32929
#	44699
#	56046
#	66617
#	78712
#	89743
#	101576
#	113029
#	129202
#	144648
#	157025
#	171145
#	186972
#	200882
#	209899
#	221088
#	236893
#
# Disc length: 3401 seconds
#
# Revision: 0
# Processed by: cddbd v1.5.2PL0 Copyright (c) Steve Scherf et al.
# Submitted via: EasyCDDAExtractor 16.0.6.1
#
DISCID=370d4714
DTITLE=Χωματά Καίτη - Είκοσι μεγάλες επιτυχίες-Κ. Χωματά
DYEAR=2010
DGENRE=Ποικίλη
TTITLE0=Χωματά Καίτη - Μιά αγάπη για τι καλοκαίρι [Γ. Σπανός-Γ. Παπαστεφάνου]
TTITLE1=Χωματά Καίτη - Κι αν σ' αγαπώ, δε σ' ορίζω [Γ. Σπανός-Γ. Παπαστεφάνου]
TTITLE2=Χωματά Καίτη-Βιολάρης Μιχάλης - Άσπρα καράβια [Γ. Σπανός-Σ. Σκίπης]
TTITLE3=Χωματά Καίτη - Να διώξω τα σύννεφα [Ηλέκτρα Παπακώστα-Ά. Δασκαλόπουλος
TTITLE3=]
TTITLE4=Χωματά Καίτη - Στον ουρανό είναι ένα αστέρι [Γ. Σπανός-Α. Σακελλάριος]
TTITLE5=Χωματά Καίτη - Μικρό ταξίδι στο γιαλό [Γ. Σπανός-Γ. Παπαστεφάνου]
TTITLE6=Χωματά Καίτη - Το Χριστινάκι [Γ. Σπανός-Βασ. Ρώτας]
TTITLE7=Χωματά Καίτη-Βιολάρης Μιχάλης - Μαυρομαλλούσα κοπελιά [Γ. Σπανός-Κ. Κω
TTITLE7=τούλας]
TTITLE8=Χωματά Καίτη - Η Ελένη στο μπαλκόνι [Γ. Σπανός-Κ. Κωτούλας]
TTITLE9=Χωματά Καίτη - Τάχα γιατί [Γ. Σπανός-Γ. Παπαστεφάνου]
TTITLE10=Χωματά Καίτη - Η μπαλάντα της Καίτης [Γ. Σπανός-Κ. Κωτούλας]
TTITLE11=Χωματά Καίτη - Μιά φυσαρμόνικα [Γ. Σπανός-Κ. Γεωργουσόπουλος]
TTITLE12=Χωματά Καίτη - Το σγουρόμαλλο αγόρι [Δημ. Μαχαιρίτσας-Φίλη Μαχαιρίτσα
TTITLE12=]
TTITLE13=Χωματά Καίτη - Την πόρτα σου άφησε ανοιχτή [Σπήλιος Μεντής]
TTITLE14=Χωματά Καίτη - Χαλάλιν του [Μιχ. Βιολάρης-Ανδρέας Γρηγορίου]
TTITLE15=Χωματά Καίτη - Περσμένα δειλινά [Δημ. Μαχαιρίτσας-Φίλη Μαχαιρίτσα]
TTITLE16=Χωματά Καίτη - Τ' ασημένιο καράβι [Jean Yatone-Willy Rozier, απ.Γ.Παπ
TTITLE16=αστεφάνου]
TTITLE17=Χωματά Καίτη - Τα δειλινά [Γ. Ζαμπέτας-Χαρ. Βασιλειάδης]
TTITLE18=Χωματά Καίτη - Περιπλάνηση [Ν. Μαμαγκάκης-Ά. Δασκαλόπουλος]
TTITLE19=Χωματά Καίτη - Κάποτε κλάψαμε κι οι δυό [Γ. Βέλλας-Κ. Κοφινιώτης]
EXTD=
EXTT0=
EXTT1=
EXTT2=
EXTT3=
EXTT4=
EXTT5=
EXTT6=
EXTT7=
EXTT8=
EXTT9=
EXTT10=
EXTT11=
EXTT12=
EXTT13=
EXTT14=
EXTT15=
EXTT16=
EXTT17=
EXTT18=
EXTT19=
PLAYORDER=
